<svg
   xmlns:dc="http://purl.org/dc/elements/1.1/"
   xmlns:cc="http://creativecommons.org/ns#"
   xmlns:rdf="http://www.w3.org/1999/02/22-rdf-syntax-ns#"
   xmlns:svg="http://www.w3.org/2000/svg"
   xmlns="http://www.w3.org/2000/svg"
   xmlns:inkscape="http://www.inkscape.org/namespaces/inkscape"
   version="1.1"
   width="750"
   height="600"
   id="svg2">
  <defs
     id="defs12" />
  <metadata
     id="metadata7">
    <rdf:RDF>
      <cc:Work
         rdf:about="">
        <dc:format>image/svg+xml</dc:format>
        <dc:type
           rdf:resource="http://purl.org/dc/dcmitype/StillImage" />
        <dc:title />
      </cc:Work>
    </rdf:RDF>
  </metadata>
  <rect
     width="750"
     height="600"
     rx="37.5"
     ry="37.5"
     x="0"
     y="0"
     id="rect6" />
  <path
     d="M 93.75,12.5 C 48.737,12.5 12.501,48.738 12.5,93.75 v 84.188 c -0.0012,0.55196 0,1.1043 0,1.6562 0,210.89 158.26,382.96 362.5,407.64 204.24,-24.678 362.5,-198.4 362.5,-409.3 v -84.188 c 0,-45.014 -36.24,-81.252 -81.25,-81.252 z"
     inkscape:connector-curvature="0"
     id="path8"
     style="fill:#ffffff" />
  <g
     id="routenum">
    <path
       d="m 262.15,327.68 v 72.321 H 219.293 V 327.68 H 95.183 v -30.357 l 124.11,-196.43 h 42.857 v 186.61 h 17.857 v 40.179 H 262.15 m -42.86,-152.23 -71.43,112.05 h 71.429 v -112.05"
       inkscape:connector-curvature="0"
       id="path2989" />
    <path
       d="m 511.65,250 c -2e-4,22.917 -1.3395,42.411 -4.0179,58.482 -2.3811,16.072 -6.6966,31.25 -12.946,45.536 -7.4407,17.857 -16.816,30.952 -28.125,39.286 -11.012,8.0357 -25,12.054 -41.964,12.054 -17.857,0 -32.441,-4.0179 -43.75,-12.054 -11.012,-8.3333 -20.238,-21.429 -27.679,-39.286 -6.25,-14.583 -10.714,-29.762 -13.393,-45.536 -2.381,-16.071 -3.5715,-35.565 -3.5714,-58.482 -3e-5,-22.619 1.1904,-41.964 3.5714,-58.036 2.6785,-16.369 7.1428,-31.696 13.393,-45.982 7.738,-17.857 17.113,-30.654 28.125,-38.393 11.309,-8.0354 25.744,-12.053 43.304,-12.054 17.262,3.05e-4 31.399,4.0182 42.411,12.054 11.012,7.7384 20.238,20.834 27.679,39.286 2.976,7.4407 5.5058,14.881 7.5893,22.321 2.3808,7.4407 4.1665,15.328 5.3571,23.661 1.4879,8.0359 2.5296,16.816 3.125,26.339 0.59504,9.2264 0.89266,19.494 0.89286,30.804 m -41.071,0 c -1.6e-4,-8.3332 -0.29778,-15.922 -0.89285,-22.768 -0.29778,-6.8451 -0.89302,-13.095 -1.7857,-18.75 -0.59539,-5.9522 -1.4882,-11.607 -2.6786,-16.964 -1.1906,-5.3569 -2.5299,-10.714 -4.0179,-16.071 -3.8692,-13.393 -8.7799,-23.065 -14.732,-29.018 -5.6549,-5.9521 -12.947,-8.9283 -21.875,-8.9286 -18.452,2.6e-4 -31.101,12.351 -37.946,37.054 -3.5715,11.31 -6.1013,22.768 -7.5893,34.375 -1.1906,11.31 -1.7858,25.298 -1.7857,41.964 -7e-5,8.0359 0.14874,15.476 0.44642,22.321 0.59517,6.5477 1.1904,12.798 1.7857,18.75 0.89278,5.6549 1.9344,11.31 3.125,16.964 1.1904,5.6548 2.5297,11.458 4.0179,17.411 6.8452,24.702 19.494,37.054 37.946,37.054 8.9284,3e-5 16.22,-2.9762 21.875,-8.9286 5.9522,-5.9523 10.863,-15.327 14.732,-28.125 1.7856,-5.9523 3.2737,-11.607 4.4643,-16.964 1.1903,-5.6547 2.0832,-11.458 2.6786,-17.411 0.8927,-5.9523 1.4879,-12.202 1.7857,-18.75 0.29745,-6.8451 0.44626,-14.583 0.44642,-23.214"
       inkscape:connector-curvature="0"
       id="path2991" />
    <path
       d="M 586.84,400 V 154.46 h -18.75 v -32.589 c 8.6309,-0.59496 15.476,-2.6783 20.536,-6.25 5.3571,-3.5711 9.6726,-8.4818 12.946,-14.732 h 28.571 v 299.11 h -43.304"
       inkscape:connector-curvature="0"
       id="path2993" />
  </g>
</svg>